<svg xmlns="http://www.w3.org/2000/svg" viewBox="0 0 400.45 400.44"><defs><style>.cls-1{fill:#fff;}</style></defs><title>A blanca</title><g id="Capa_2" data-name="Capa 2"><g id="Layer_1" data-name="Layer 1"><path class="cls-1" d="M84.53,278.31v0a4.27,4.27,0,0,0-.31,1.61,4.51,4.51,0,0,0,4.51,4.51h65a4.47,4.47,0,0,0,4.21-2.87s0,0,0,0l35.75-90.43H119Z"/><path class="cls-1" d="M318.19,278.29,235,96.19a7.3,7.3,0,0,0-6.68-4.33H163.12a7.33,7.33,0,0,0-6.52,4l-20.88,52.9H179.3l60.48,133.14a4.47,4.47,0,0,0,4.05,2.51H314a4.5,4.5,0,0,0,4.5-4.51,4.38,4.38,0,0,0-.33-1.65"/><path class="cls-1" d="M200.22,400.44C89.82,400.44,0,310.63,0,200.22S89.82,0,200.22,0,400.45,89.82,400.45,200.22,310.62,400.44,200.22,400.44m0-372.33c-94.9,0-172.12,77.21-172.12,172.11s77.22,172.12,172.12,172.12,172.12-77.22,172.12-172.12S295.12,28.11,200.22,28.11"/></g></g></svg>