<svg width="400.45" height="400.44" xmlns="http://www.w3.org/2000/svg">
 <defs>
  <style>.cls-1{fill:#2e3487;}.cls-2{fill:#c22027;}</style>
 </defs>
 <title>Recurso 1</title>
 <g>
  <title>background</title>
  <rect fill="none" id="canvas_background" height="402" width="582" y="-1" x="-1"/>
 </g>
 <g>
  <title>Layer 1</title>
  <g id="Capa_2">
   <g id="Layer_1">
    <ellipse stroke="null" ry="175.000002" rx="175.000002" id="svg_4" cy="200.220005" cx="200.224996" stroke-opacity="null" stroke-width="null" fill="#ffffff"/>
    <path id="svg_1" d="m84.53,278.31l0,0a4.27,4.27 0 0 0 -0.31,1.61a4.51,4.51 0 0 0 4.51,4.51l65,0a4.47,4.47 0 0 0 4.21,-2.87s0,0 0,0l35.75,-90.43l-74.69,0l-34.47,87.18z" class="cls-1"/>
    <path id="svg_2" d="m318.19,278.29l-83.19,-182.1a7.3,7.3 0 0 0 -6.68,-4.33l-65.2,0a7.33,7.33 0 0 0 -6.52,4l-20.88,52.9l43.58,0l60.48,133.14a4.47,4.47 0 0 0 4.05,2.51l70.17,0a4.5,4.5 0 0 0 4.5,-4.51a4.38,4.38 0 0 0 -0.33,-1.65" class="cls-1"/>
    <path id="svg_3" d="m200.22,400.44c-110.4,0 -200.22,-89.81 -200.22,-200.22s89.82,-200.22 200.22,-200.22s200.23,89.82 200.23,200.22s-89.83,200.22 -200.23,200.22m0,-372.33c-94.9,0 -172.12,77.21 -172.12,172.11s77.22,172.12 172.12,172.12s172.12,-77.22 172.12,-172.12s-77.22,-172.11 -172.12,-172.11" class="cls-2"/>
   </g>
  </g>
 </g>
</svg>